PathFileType	4	(X/Y/Z)	/Users/itak/Documents/Research/Walk-IL/dataset/trc/00234_00009.trc
DataRate	CameraRate	NumFrames	NumMarkers	Units	OrigDataRate	OrigDataStartFrame	OrigNumFrames
100.000000	100.000000	4	53	mm	100.000000	0	780
Frame#	Time	RPSI			LPSI			L3			STRN			T10			C7			CLAV			RBAK			LBAK			LSHO			LUPA			LAEL			LAOL			LWTS			LWPS			LFRA			LIFD			LHPS			LHTS			RSHO			RUPA			RAEL			RAOL			RWTS			RWPS			RFRA			RIFD			RHTS			RHPS			RBHD			LFHD			RFHD			LBHD			LHIP			RHIP			RASI			LASI			LKNE			LTHI			LANK			LTIP			LTOE			LMT1			LMT5			LHEE			RKNE			RTHI			RANK			RTIP			RTOE			RMT1			RMT5			RHEE			
		X1	Y1	Z1	X2	Y2	Z2	X3	Y3	Z3	X4	Y4	Z4	X5	Y5	Z5	X6	Y6	Z6	X7	Y7	Z7	X8	Y8	Z8	X9	Y9	Z9	X10	Y10	Z10	X11	Y11	Z11	X12	Y12	Z12	X13	Y13	Z13	X14	Y14	Z14	X15	Y15	Z15	X16	Y16	Z16	X17	Y17	Z17	X18	Y18	Z18	X19	Y19	Z19	X20	Y20	Z20	X21	Y21	Z21	X22	Y22	Z22	X23	Y23	Z23	X24	Y24	Z24	X25	Y25	Z25	X26	Y26	Z26	X27	Y27	Z27	X28	Y28	Z28	X29	Y29	Z29	X30	Y30	Z30	X31	Y31	Z31	X32	Y32	Z32	X33	Y33	Z33	X34	Y34	Z34	X35	Y35	Z35	X36	Y36	Z36	X37	Y37	Z37	X38	Y38	Z38	X39	Y39	Z39	X40	Y40	Z40	X41	Y41	Z41	X42	Y42	Z42	X43	Y43	Z43	X44	Y44	Z44	X45	Y45	Z45	X46	Y46	Z46	X47	Y47	Z47	X48	Y48	Z48	X49	Y49	Z49	X50	Y50	Z50	X51	Y51	Z51	X52	Y52	Z52	X53	Y53	Z53	

1	0	-3.108510971069336	1043.938232421875	908.26611328125	4.933515071868896	1049.694091796875	788.5264892578125	0.3097257316112518	1126.320922851562	830.0076293945312	239.3371734619141	1320.046142578125	843.7662353515625	-13.48851776123047	1253.8203125	834.323974609375	42.41396331787109	1516.433959960938	832.9688720703125	209.6535491943359	1437.10009765625	844.39404296875	-33.06201934814453	1376.159057617188	904.0457153320312	29.92420768737793	1479.267578125	720.5984497070312	122.6710662841797	1480.44482421875	671.5030517578125	106.8662567138672	1362.480834960938	591.2410278320312	148.0769195556641	1153.666870117188	566.3038940429688	69.86830902099609	1130.701049804688	598.4548950195312	250.2715148925781	930.8353881835938	645.8551025390625	242.1207733154297	909.987060546875	564.4629516601562	184.2440643310547	1048.880737304688	559.7241821289062	278.9012756347656	738.27490234375	646.6825561523438	267.5119934082031	824.2145385742188	575.3882446289062	298.5825805664062	834.349365234375	635.43408203125	93.91442108154297	1478.061279296875	1005.724365234375	75.82017517089844	1412.609130859375	1072.80517578125	70.80755615234375	1130.205932617188	1112.595947265625	32.63098907470703	1122.728271484375	1025.655395507812	219.3452758789062	926.1204223632812	1059.316650390625	171.2062530517578	906.3984985351562	1125.955200195312	102.2778244018555	1062.96240234375	1122.89404296875	248.7474365234375	734.4555053710938	1047.19677734375	267.9378051757812	808.1563720703125	1069.262817382812	218.3790130615234	802.3384399414062	1121.593627929688	61.52577590942383	1669.546264648438	872.9419555664062	276.5065307617188	1728.97265625	827.7069091796875	252.4618072509766	1727.082397460938	924.82177734375	136.6848602294922	1681.826171875	754.10546875	113.8142395019531	988.5494384765625	654.5003051757812	89.74219512939453	1005.82861328125	1019.470947265625	187.7841491699219	1050.231811523438	988.0809326171875	211.262939453125	1032.738891601562	708.261962890625	159.869140625	506.0340270996094	705.2522583007812	154.2168884277344	649.3825073242188	674.4188232421875	48.30936813354492	36.96504974365234	720.8552856445312	100.0264053344727	281.9630737304688	702.9190673828125	265.3424987792969	41.30903625488281	768.5433959960938	198.1144561767578	35.15780258178711	813.54443359375	175.9637145996094	37.61141204833984	699.140869140625	-11.94849967956543	42.25896835327148	775.4319458007812	137.4838104248047	515.7443237304688	979.7711181640625	154.6837158203125	782.8785400390625	1028.416015625	28.75251197814941	36.1616096496582	950.974365234375	137.6815338134766	395.6324462890625	960.8207397460938	242.8574829101562	43.12462615966797	920.4556884765625	189.9070281982422	40.66298294067383	874.1290283203125	136.0334625244141	37.03907775878906	983.46826171875	-29.90089225769043	34.65205383300781	888.3524780273438	
2	0.01	-3.167490482330322	1043.932861328125	908.2371215820312	4.875990390777588	1049.67041015625	788.470947265625	0.2406885027885437	1126.327270507812	829.99560546875	239.2664642333984	1320.037231445312	843.7664794921875	-13.57854557037354	1253.813354492188	834.3436889648438	42.37983703613281	1516.43408203125	833.01220703125	209.59130859375	1437.10546875	844.4053955078125	-33.09653091430664	1376.156372070312	904.0580444335938	29.8721809387207	1479.280639648438	720.6475219726562	122.594841003418	1480.459106445312	671.5179443359375	106.6632461547852	1362.50732421875	591.2161254882812	147.5813293457031	1153.627197265625	566.2426147460938	69.37812042236328	1130.815795898438	598.501708984375	249.0894470214844	930.2465209960938	645.1828002929688	240.7354888916016	909.6245727539062	563.7559814453125	183.3357696533203	1048.742919921875	559.4293823242188	276.7246704101562	737.4869995117188	645.40625	265.7098693847656	823.7135009765625	574.3836669921875	296.8883666992188	833.5196533203125	634.4033203125	93.88298797607422	1478.01611328125	1005.749816894531	75.78339385986328	1412.544921875	1072.82275390625	70.70179748535156	1130.155639648438	1112.542724609375	32.50020980834961	1122.693115234375	1025.590209960938	218.6815490722656	925.681396484375	1059.348266601562	170.5839538574219	906.1348876953125	1125.993286132812	102.052848815918	1062.876586914062	1122.85546875	247.5600891113281	733.9087524414062	1047.393188476562	266.9538269042969	807.6265869140625	1069.382446289062	217.5237121582031	801.9970092773438	1121.70556640625	61.51830291748047	1669.5380859375	872.9819946289062	276.4592895507812	1728.963989257812	827.7683715820312	252.4114379882812	1727.061279296875	924.8840942382812	136.5970916748047	1681.853393554688	754.176513671875	113.8734664916992	988.529296875	654.49658203125	89.68422698974609	1005.862915039062	1019.542907714844	187.7435302734375	1050.218627929688	988.0711059570312	211.2147827148438	1032.753662109375	708.2516479492188	159.8146514892578	506.03759765625	705.2247314453125	154.1678161621094	649.3863525390625	674.3870239257812	48.30663681030273	36.95683670043945	720.85107421875	100.0137939453125	281.9690246582031	702.9146118164062	265.3345031738281	41.31516265869141	768.54150390625	198.1145782470703	35.16034698486328	813.5366821289062	175.9609985351562	37.6009521484375	699.1380615234375	-11.94678497314453	42.2548942565918	775.4303588867188	137.5182800292969	515.7416381835938	979.7575073242188	154.6570892333984	782.8921508789062	1028.410888671875	28.75608444213867	36.15939712524414	950.9677124023438	137.6346588134766	395.6091918945312	960.8012084960938	242.865478515625	43.12404632568359	920.4605102539062	189.900634765625	40.65946960449219	874.1258544921875	136.0325012207031	37.03789520263672	983.465576171875	-29.89760780334473	34.65398025512695	888.3436889648438	
3	0.02	-3.237475872039795	1043.921508789062	908.2050170898438	4.804271697998047	1049.643920898438	788.4127807617188	0.1578291952610016	1126.33447265625	829.9844970703125	239.1734313964844	1320.02392578125	843.772705078125	-13.68549060821533	1253.80322265625	834.3687133789062	42.33949661254883	1516.434326171875	833.0670166015625	209.5109252929688	1437.109985351562	844.4262084960938	-33.13957214355469	1376.150390625	904.0750732421875	29.81174087524414	1479.296752929688	720.7109985351562	122.4990158081055	1480.476196289062	671.5408935546875	106.4028396606445	1362.53759765625	591.1881103515625	146.9276580810547	1153.577270507812	566.1640014648438	68.73543548583984	1130.963745117188	598.5684814453125	247.5514526367188	929.4920043945312	644.3194580078125	238.9570770263672	909.1751708984375	562.8525390625	182.1724700927734	1048.574951171875	559.0553588867188	273.9570007324219	736.5074462890625	643.784423828125	263.40869140625	823.087158203125	573.10986328125	294.7059631347656	832.4744262695312	633.0861206054688	93.84578704833984	1477.963012695312	1005.781433105469	75.72591400146484	1412.469604492188	1072.847534179688	70.55910491943359	1130.095092773438	1112.482543945312	32.33711624145508	1122.655029296875	1025.511352539062	217.8527984619141	925.1288452148438	1059.417114257812	169.7846069335938	905.8130493164062	1126.0712890625	101.7582168579102	1062.77099609375	1122.81591796875	246.0727386474609	733.2304077148438	1047.672119140625	265.7188720703125	806.95458984375	1069.560424804688	216.4065704345703	801.563720703125	1121.886474609375	61.51006317138672	1669.527709960938	873.0325317382812	276.4002685546875	1728.949829101562	827.844970703125	252.3509826660156	1727.0341796875	924.9627685546875	136.4981842041016	1681.881103515625	754.2623291015625	113.9160232543945	988.5050048828125	654.4848022460938	89.59105682373047	1005.892456054688	1019.618835449219	187.6933288574219	1050.201171875	988.0587768554688	211.1566009521484	1032.771850585938	708.2420654296875	159.7597351074219	506.0425720214844	705.194580078125	154.1176605224609	649.3900756835938	674.3510131835938	48.30224227905273	36.94766616821289	720.8449096679688	100.000129699707	281.9743041992188	702.9083251953125	265.3263549804688	41.32106018066406	768.5399780273438	198.1150207519531	35.16377258300781	813.5270385742188	175.9583587646484	37.59220504760742	699.1343994140625	-11.94562721252441	42.24908065795898	775.42919921875	137.5713043212891	515.7354736328125	979.7376098632812	154.6581268310547	782.90283203125	1028.369018554688	28.76044082641602	36.15668487548828	950.9593505859375	137.6117248535156	395.5813293457031	960.7763061523438	242.8731994628906	43.12500381469727	920.4625244140625	189.8954467773438	40.6549186706543	874.1189575195312	136.0317535400391	37.03659820556641	983.4614868164062	-29.89425086975098	34.65956878662109	888.3349609375	
4	0.03	-3.313789844512939	1043.90234375	908.1728515625	4.7223219871521	1049.615844726562	788.3580322265625	0.06587217748165131	1126.341918945312	829.9766845703125	239.0608215332031	1320.006103515625	843.7874755859375	-13.801926612854	1253.78955078125	834.3983154296875	42.29600143432617	1516.434814453125	833.1312255859375	209.4148254394531	1437.112060546875	844.4590454101562	-33.18954467773438	1376.140258789062	904.0965576171875	29.7475643157959	1479.315185546875	720.7869262695312	122.388557434082	1480.494750976562	671.5726318359375	106.0964202880859	1362.56884765625	591.1605834960938	146.1302032470703	1153.519409179688	566.0711669921875	67.9537353515625	1131.140869140625	598.656982421875	245.6984558105469	928.5975341796875	643.2919921875	236.8381652832031	908.6599731445312	561.7825317382812	180.7903137207031	1048.385986328125	558.615966796875	270.6915588378906	735.3798217773438	641.8762817382812	260.6836547851562	822.363525390625	571.6138916015625	292.1088256835938	831.2581787109375	631.529296875	93.80577087402344	1477.905395507812	1005.818298339844	75.64493560791016	1412.388427734375	1072.880493164062	70.37989807128906	1130.027954101562	1112.42138671875	32.14960098266602	1122.616943359375	1025.42431640625	216.8913879394531	924.4855346679688	1059.535400390625	168.8312683105469	905.4506225585938	1126.200561523438	101.395881652832	1062.651245117188	1122.781860351562	244.3381958007812	732.4498291015625	1048.039672851562	264.2806091308594	806.1669921875	1069.804565429688	215.0562744140625	801.055908203125	1122.147338867188	61.50143432617188	1669.515869140625	873.091796875	276.3330078125	1728.928833007812	827.9328002929688	252.2855072021484	1727.001708984375	925.053955078125	136.3979034423828	1681.90478515625	754.3578491210938	113.9086227416992	988.4814453125	654.4605712890625	89.46778106689453	1005.910888671875	1019.688232421875	187.6365203857422	1050.179565429688	988.0448608398438	211.0915374755859	1032.792724609375	708.2349243164062	159.7125701904297	506.0485229492188	705.164794921875	154.0735778808594	649.3929443359375	674.3142700195312	48.29638290405273	36.93828201293945	720.8370361328125	99.98766326904297	281.9778747558594	702.9002075195312	265.31884765625	41.3260498046875	768.5390625	198.115966796875	35.16784286499023	813.5164184570312	175.9554290771484	37.58559036254883	699.13037109375	-11.94514846801758	42.24159240722656	775.4287109375	137.6454162597656	515.724853515625	979.7114868164062	154.7050628662109	782.9098510742188	1028.27099609375	28.76509666442871	36.15378952026367	950.9502563476562	137.6242523193359	395.5497436523438	960.74658203125	242.8803863525391	43.12791442871094	920.4610595703125	189.8931884765625	40.65001678466797	874.10791015625	136.0316925048828	37.03550338745117	983.455810546875	-29.89112281799316	34.66851806640625	888.3275756835938	
